<svg width="513" height="212" viewBox="0 0 513 212" fill="none" xmlns="http://www.w3.org/2000/svg">
<mask id="mask0_101_17" style="mask-type:luminance" maskUnits="userSpaceOnUse" x="16" y="11" width="131" height="193">
<path d="M146.267 11H16V203.784H146.267V11Z" fill="white"/>
</mask>
<g mask="url(#mask0_101_17)">
<path d="M80.787 70.509C87.7629 70.4496 94.6881 71.6981 101.204 74.19C96.412 50.134 89.021 35.421 80.747 35.432H80.738C72.466 35.448 65.117 50.176 60.386 74.238C66.8934 71.7318 73.8138 70.4669 80.787 70.509Z" fill="url(#paint0_linear_101_17)"/>
<path d="M81.272 184.212L70.744 184.226C73.4 200.707 77.155 203.79 81.306 203.784C85.457 203.778 89.186 200.684 91.806 184.199L81.272 184.212Z" fill="url(#paint1_linear_101_17)"/>
<path d="M106.87 137.341C106.439 125.028 105.587 112.088 104.19 98.59C103.474 91.672 102.656 84.9386 101.735 78.3899C88.2612 73.185 73.3287 73.2025 59.867 78.4389C58.969 85.0503 58.169 91.8469 57.467 98.8289C56.107 112.429 55.287 125.471 54.883 137.887C43.253 146.487 35.223 162.799 35.25 184.198L54.577 184.173C58.113 184.173 60.218 183.273 60.218 179.666L60.206 179.598L80.928 179.572L102.328 179.545C102.328 183.364 104.35 184.111 107.901 184.106L127.301 184.082C127.271 162.274 118.883 145.682 106.87 137.341ZM80.804 84.6819C82.3934 84.6798 83.9478 85.149 85.2705 86.0302C86.5933 86.9114 87.625 88.1652 88.2352 89.6328C88.8454 91.1004 89.0067 92.716 88.6987 94.2753C88.3907 95.8345 87.6272 97.2675 86.5047 98.3928C85.3823 99.5182 83.9514 100.285 82.3929 100.598C80.8344 100.91 79.2184 100.753 77.7492 100.146C76.28 99.5398 75.0237 98.5113 74.139 97.1909C73.2543 95.8705 72.781 94.3174 72.779 92.728C72.7766 90.5969 73.6207 88.5522 75.1256 87.0434C76.6305 85.5345 78.673 84.6851 80.804 84.6819ZM80.838 110.861C82.4272 110.859 83.9813 111.328 85.3037 112.21C86.6262 113.091 87.6576 114.344 88.2676 115.812C88.8775 117.279 89.0387 118.895 88.7306 120.454C88.4225 122.013 87.659 123.445 86.5367 124.57C85.4144 125.696 83.9836 126.463 82.4254 126.775C80.8671 127.087 79.2513 126.929 77.7824 126.323C76.3134 125.717 75.0572 124.689 74.1727 123.368C73.2882 122.048 72.815 120.495 72.813 118.906C72.8106 116.775 73.6547 114.73 75.1596 113.222C76.6646 111.713 78.7071 110.864 80.838 110.861ZM80.892 153.111C79.3028 153.113 77.7488 152.644 76.4263 151.762C75.1039 150.881 74.0724 149.628 73.4625 148.16C72.8525 146.693 72.6914 145.077 72.9995 143.518C73.3076 141.959 74.0711 140.527 75.1934 139.401C76.3157 138.276 77.7464 137.509 79.3047 137.197C80.8629 136.885 82.4787 137.042 83.9476 137.649C85.4166 138.255 86.6728 139.283 87.5573 140.604C88.4419 141.924 88.9151 143.477 88.917 145.066C88.9183 146.121 88.7118 147.166 88.3092 148.142C87.9065 149.117 87.3157 150.004 86.5704 150.751C85.8251 151.498 84.94 152.091 83.9655 152.496C82.991 152.901 81.9463 153.111 80.891 153.112L80.892 153.111Z" fill="url(#paint2_linear_101_17)"/>
<path d="M80.813 88.033C79.5824 88.0525 78.409 88.5554 77.5462 89.433C76.6834 90.3107 76.2006 91.4926 76.2022 92.7234C76.2038 93.9541 76.6896 95.1348 77.5546 96.0103C78.4196 96.8857 79.5944 97.3856 80.825 97.402C82.0674 97.4004 83.2583 96.9053 84.1357 96.0257C85.0131 95.146 85.5051 93.9539 85.5035 92.7115C85.5019 91.4691 85.0068 90.2781 84.1272 89.4008C83.2476 88.5234 82.0554 88.0314 80.813 88.033Z" fill="url(#paint3_linear_101_17)"/>
<path d="M80.847 114.212H80.838C79.6074 114.231 78.4339 114.734 77.5711 115.612C76.7084 116.49 76.2256 117.672 76.2272 118.902C76.2288 120.133 76.7145 121.314 77.5796 122.189C78.4446 123.065 79.6194 123.565 80.85 123.581C82.0925 123.58 83.2836 123.085 84.1613 122.205C85.039 121.326 85.5313 120.133 85.53 118.891C85.5286 117.648 85.0338 116.457 84.1542 115.58C83.2747 114.702 82.0825 114.21 80.84 114.211L80.847 114.212Z" fill="url(#paint4_linear_101_17)"/>
<path d="M80.875 140.392C79.6444 140.411 78.4709 140.914 77.6082 141.792C76.7454 142.67 76.2626 143.852 76.2642 145.082C76.2657 146.313 76.7516 147.494 77.6166 148.369C78.4816 149.245 79.6564 149.745 80.887 149.761C82.1294 149.759 83.3203 149.265 84.1978 148.385C85.0753 147.505 85.5674 146.313 85.566 145.071C85.5645 143.829 85.0696 142.638 84.19 141.76C83.3105 140.883 82.1174 140.391 80.875 140.392Z" fill="url(#paint5_linear_101_17)"/>
<path d="M106.173 73.636C102.213 53.761 94.586 30.061 80.732 30.061H80.595C69.525 30.19 61.04 44.87 55.373 73.695L55.361 73.757L53.777 82.771C53.136 86.848 52.566 91.08 52.077 95.387C51.9797 96.2437 51.8853 97.107 51.794 97.977C51.188 103.755 50.711 109.823 50.371 116.053C48.656 114.73 47.0264 113.3 45.492 111.771C38.2206 104.509 33.3429 95.1977 31.5128 85.0853C29.6827 74.9729 30.9876 64.5427 35.2527 55.1929C39.5177 45.843 46.539 38.0204 55.3753 32.7736C64.2116 27.5268 74.4407 25.1067 84.6914 25.8375C94.942 26.5683 104.724 30.4152 112.727 36.8625C120.73 43.3099 126.57 52.0494 129.465 61.9098C132.361 71.7701 132.173 82.28 128.927 92.0304C125.68 101.781 119.531 110.306 111.303 116.463C110.947 110.073 110.444 103.842 109.803 97.904C109.709 97.0373 109.613 96.174 109.514 95.314C109.014 91.014 108.438 86.781 107.786 82.714L106.173 73.636Z" fill="url(#paint6_linear_101_17)"/>
<path d="M81.051 11C66.6612 11.0387 52.6888 15.8397 41.3142 24.6536C29.9395 33.4676 21.8023 45.7988 18.1721 59.7233C14.542 73.6478 15.6231 88.3823 21.2469 101.628C26.8706 114.873 36.7206 125.885 49.26 132.944C49.3933 130.231 49.5413 127.548 49.704 124.897C42.1198 119.996 35.7773 113.401 31.176 105.631C25.976 96.8208 23.1982 86.7922 23.1245 76.5621C23.0508 66.3321 25.6837 56.2645 30.7563 47.3803C35.8288 38.4961 43.1605 31.1114 52.0079 25.9749C60.8553 20.8385 70.9037 18.1331 81.134 18.1331C91.3643 18.1331 101.413 20.8385 110.26 25.9749C119.107 31.1114 126.439 38.4961 131.512 47.3803C136.584 56.2645 139.217 66.3321 139.143 76.5621C139.07 86.7922 136.292 96.8208 131.092 105.631C126.37 113.605 119.816 120.338 111.972 125.274C112.135 127.912 112.285 130.576 112.423 133.267C125.114 126.314 135.129 115.333 140.887 102.057C146.645 88.7811 147.819 73.9656 144.222 59.9486C140.626 45.9316 132.464 33.5112 121.025 24.6475C109.587 15.7837 95.5221 10.9813 81.051 10.998V11Z" fill="url(#paint7_linear_101_17)"/>
</g>
<g style="mix-blend-mode:hard-light">
<path d="M160.403 123V86.6364H172.69C175.531 86.6364 177.863 87.1217 179.686 88.0923C181.509 89.0511 182.858 90.371 183.734 92.0518C184.61 93.7327 185.048 95.6444 185.048 97.7869C185.048 99.9295 184.61 101.829 183.734 103.487C182.858 105.144 181.515 106.446 179.704 107.393C177.893 108.328 175.579 108.795 172.761 108.795H162.818V104.818H172.619C174.561 104.818 176.123 104.534 177.307 103.966C178.502 103.398 179.366 102.593 179.899 101.551C180.444 100.498 180.716 99.2429 180.716 97.7869C180.716 96.331 180.444 95.0585 179.899 93.9695C179.355 92.8804 178.485 92.04 177.289 91.4482C176.094 90.8445 174.513 90.5426 172.548 90.5426H164.807V123H160.403ZM177.52 106.665L186.469 123H181.355L172.548 106.665H177.52ZM193.877 123H189.261L202.613 86.6364H207.159L220.511 123H215.894L205.028 92.3892H204.744L193.877 123ZM195.582 108.795H214.19V112.702H195.582V108.795ZM229.948 123L220.005 86.6364H224.479L232.079 116.253H232.434L240.175 86.6364H245.147L252.888 116.253H253.243L260.843 86.6364H265.317L255.374 123H250.829L242.803 94.0227H242.519L234.493 123H229.948ZM293.953 98C293.562 96.8045 293.047 95.7332 292.408 94.7862C291.781 93.8274 291.029 93.0107 290.153 92.3359C289.289 91.6612 288.306 91.1463 287.206 90.7912C286.105 90.4361 284.897 90.2585 283.583 90.2585C281.429 90.2585 279.47 90.8149 277.706 91.9276C275.943 93.0402 274.54 94.6797 273.498 96.8459C272.457 99.0121 271.936 101.67 271.936 104.818C271.936 107.967 272.462 110.624 273.516 112.79C274.569 114.957 275.996 116.596 277.795 117.709C279.594 118.821 281.618 119.378 283.868 119.378C285.951 119.378 287.786 118.934 289.372 118.046C290.97 117.147 292.213 115.88 293.1 114.246C294 112.601 294.45 110.666 294.45 108.44L295.799 108.724H284.862V104.818H298.711V108.724C298.711 111.719 298.072 114.323 296.794 116.537C295.527 118.75 293.775 120.467 291.538 121.686C289.313 122.893 286.756 123.497 283.868 123.497C280.648 123.497 277.819 122.74 275.38 121.224C272.954 119.709 271.06 117.555 269.699 114.761C268.349 111.968 267.674 108.653 267.674 104.818C267.674 101.942 268.059 99.3553 268.828 97.0589C269.61 94.7507 270.711 92.7857 272.131 91.1641C273.551 89.5424 275.232 88.2995 277.174 87.4354C279.115 86.5713 281.252 86.1392 283.583 86.1392C285.501 86.1392 287.288 86.4292 288.946 87.0092C290.615 87.5774 292.1 88.3883 293.402 89.4418C294.716 90.4834 295.811 91.7322 296.687 93.1882C297.563 94.6323 298.167 96.2363 298.498 98H293.953Z" fill="black"/>
<path d="M345.173 98C344.783 96.8045 344.268 95.7332 343.629 94.7862C343.001 93.8274 342.25 93.0107 341.374 92.3359C340.51 91.6612 339.527 91.1463 338.426 90.7912C337.325 90.4361 336.118 90.2585 334.804 90.2585C332.65 90.2585 330.691 90.8149 328.927 91.9276C327.163 93.0402 325.761 94.6797 324.719 96.8459C323.677 99.0121 323.156 101.67 323.156 104.818C323.156 107.967 323.683 110.624 324.737 112.79C325.79 114.957 327.217 116.596 329.016 117.709C330.815 118.821 332.839 119.378 335.088 119.378C337.172 119.378 339.006 118.934 340.593 118.046C342.191 117.147 343.433 115.88 344.321 114.246C345.221 112.601 345.671 110.666 345.671 108.44L347.02 108.724H336.083V104.818H349.932V108.724C349.932 111.719 349.293 114.323 348.014 116.537C346.748 118.75 344.996 120.467 342.759 121.686C340.533 122.893 337.977 123.497 335.088 123.497C331.869 123.497 329.039 122.74 326.601 121.224C324.174 119.709 322.28 117.555 320.919 114.761C319.57 111.968 318.895 108.653 318.895 104.818C318.895 101.942 319.28 99.3553 320.049 97.0589C320.83 94.7507 321.931 92.7857 323.352 91.1641C324.772 89.5424 326.453 88.2995 328.394 87.4354C330.336 86.5713 332.472 86.1392 334.804 86.1392C336.722 86.1392 338.509 86.4292 340.166 87.0092C341.835 87.5774 343.321 88.3883 344.623 89.4418C345.937 90.4834 347.032 91.7322 347.908 93.1882C348.784 94.6323 349.387 96.2363 349.719 98H345.173ZM357.842 123H353.226L366.578 86.6364H371.123L384.476 123H379.859L368.993 92.3892H368.709L357.842 123ZM359.547 108.795H378.155V112.702H359.547V108.795ZM390.14 86.6364H395.395L407.753 116.821H408.18L420.537 86.6364H425.793V123H421.674V95.3722H421.319L409.955 123H405.978L394.614 95.3722H394.259V123H390.14V86.6364ZM434.622 123V86.6364H456.568V90.5426H439.026V102.83H455.432V106.736H439.026V119.094H456.852V123H434.622ZM484.391 95.7273C484.178 93.928 483.314 92.5312 481.799 91.5369C480.284 90.5426 478.425 90.0455 476.224 90.0455C474.614 90.0455 473.205 90.3059 471.998 90.8267C470.802 91.3475 469.867 92.0637 469.192 92.9751C468.53 93.8866 468.198 94.9223 468.198 96.0824C468.198 97.053 468.429 97.8875 468.891 98.5859C469.364 99.2725 469.968 99.8466 470.702 100.308C471.436 100.758 472.205 101.131 473.01 101.427C473.815 101.711 474.555 101.942 475.229 102.119L478.923 103.114C479.87 103.362 480.923 103.705 482.083 104.143C483.255 104.581 484.374 105.179 485.439 105.937C486.516 106.683 487.404 107.641 488.102 108.813C488.801 109.985 489.15 111.423 489.15 113.128C489.15 115.093 488.635 116.868 487.605 118.455C486.587 120.041 485.096 121.301 483.131 122.237C481.178 123.172 478.804 123.639 476.011 123.639C473.406 123.639 471.152 123.219 469.246 122.379C467.352 121.538 465.86 120.366 464.771 118.863C463.694 117.36 463.085 115.614 462.942 113.625H467.488C467.606 114.998 468.068 116.134 468.873 117.034C469.69 117.922 470.719 118.585 471.962 119.023C473.217 119.449 474.567 119.662 476.011 119.662C477.692 119.662 479.201 119.39 480.538 118.845C481.876 118.289 482.935 117.519 483.717 116.537C484.498 115.543 484.888 114.383 484.888 113.057C484.888 111.849 484.551 110.867 483.876 110.109C483.202 109.352 482.314 108.736 481.213 108.263C480.112 107.789 478.923 107.375 477.644 107.02L473.17 105.741C470.329 104.925 468.08 103.759 466.423 102.244C464.765 100.728 463.937 98.7457 463.937 96.2955C463.937 94.2595 464.487 92.4839 465.588 90.9688C466.701 89.4418 468.192 88.258 470.062 87.4176C471.945 86.5653 474.046 86.1392 476.366 86.1392C478.71 86.1392 480.793 86.5594 482.616 87.3999C484.439 88.2285 485.883 89.3648 486.948 90.8089C488.025 92.2531 488.594 93.8925 488.653 95.7273H484.391Z" fill="#4879F3"/>
</g>
<defs>
<linearGradient id="paint0_linear_101_17" x1="80.795" y1="200.823" x2="80.795" y2="72.8022" gradientUnits="userSpaceOnUse">
<stop stop-color="#1153FC"/>
<stop offset="1" stop-color="#5581F1"/>
</linearGradient>
<linearGradient id="paint1_linear_101_17" x1="81.275" y1="200.846" x2="81.275" y2="72.8188" gradientUnits="userSpaceOnUse">
<stop stop-color="#1153FC"/>
<stop offset="1" stop-color="#5581F1"/>
</linearGradient>
<linearGradient id="paint2_linear_101_17" x1="81.2755" y1="200.872" x2="81.2755" y2="72.8534" gradientUnits="userSpaceOnUse">
<stop stop-color="#1153FC"/>
<stop offset="1" stop-color="#5581F1"/>
</linearGradient>
<linearGradient id="paint3_linear_101_17" x1="80.8529" y1="200.836" x2="80.8529" y2="72.8083" gradientUnits="userSpaceOnUse">
<stop stop-color="#1153FC"/>
<stop offset="1" stop-color="#5581F1"/>
</linearGradient>
<linearGradient id="paint4_linear_101_17" x1="80.8786" y1="200.837" x2="80.8786" y2="72.8143" gradientUnits="userSpaceOnUse">
<stop stop-color="#1153FC"/>
<stop offset="1" stop-color="#5581F1"/>
</linearGradient>
<linearGradient id="paint5_linear_101_17" x1="80.9151" y1="200.841" x2="80.9151" y2="72.8133" gradientUnits="userSpaceOnUse">
<stop stop-color="#1153FC"/>
<stop offset="1" stop-color="#5581F1"/>
</linearGradient>
<linearGradient id="paint6_linear_101_17" x1="81.1072" y1="200.773" x2="81.1072" y2="72.8107" gradientUnits="userSpaceOnUse">
<stop stop-color="#1153FC"/>
<stop offset="1" stop-color="#5581F1"/>
</linearGradient>
<linearGradient id="paint7_linear_101_17" x1="81.1654" y1="200.882" x2="81.1654" y2="72.8661" gradientUnits="userSpaceOnUse">
<stop stop-color="#1153FC"/>
<stop offset="1" stop-color="#5581F1"/>
</linearGradient>
</defs>
</svg>
